<?xml version="1.0" encoding="UTF-8"?>
<svg width="512" height="512" viewBox="0 0 512 512" fill="none" xmlns="http://www.w3.org/2000/svg">
  <!-- Enhanced gradients -->
  <defs>
    <linearGradient id="bgGradient" x1="0%" y1="0%" x2="100%" y2="100%">
      <stop offset="0%" style="stop-color:#0f0f0f"/>
      <stop offset="50%" style="stop-color:#1a1a2e"/>
      <stop offset="100%" style="stop-color:#2d1a45"/>
    </linearGradient>
    
    <linearGradient id="nGradient" x1="0%" y1="0%" x2="100%" y2="100%">
      <stop offset="0%" style="stop-color:#9333ea"/>
      <stop offset="50%" style="stop-color:#8b5cf6"/>
      <stop offset="100%" style="stop-color:#7c3aed"/>
    </linearGradient>
    
    <!-- Enhanced glow effect -->
    <filter id="glow" x="-50%" y="-50%" width="200%" height="200%">
      <feGaussianBlur in="SourceGraphic" stdDeviation="6" result="blur"/>
      <feColorMatrix in="blur" type="matrix" values="0 0 0 0 0.7   0 0 0 0 0.3   0 0 0 0 1  0 0 0 0.9 0"/>
      <feMerge>
        <feMergeNode/>
        <feMergeNode in="SourceGraphic"/>
      </feMerge>
    </filter>

    <!-- Enhanced shine effect -->
    <linearGradient id="shine" x1="0%" y1="0%" x2="100%" y2="100%">
      <stop offset="0%" style="stop-color:rgba(255,255,255,0.3)"/>
      <stop offset="50%" style="stop-color:rgba(255,255,255,0)"/>
      <stop offset="100%" style="stop-color:rgba(255,255,255,0.3)"/>
    </linearGradient>

    <!-- New texture pattern -->
    <pattern id="texture" x="0" y="0" width="8" height="8" patternUnits="userSpaceOnUse">
      <circle cx="4" cy="4" r="1" fill="url(#shine)" opacity="0.1"/>
    </pattern>
  </defs>

  <!-- Base circle with gradient and texture -->
  <circle cx="256" cy="256" r="246" fill="url(#bgGradient)" stroke="url(#nGradient)" stroke-width="12"/>
  <circle cx="256" cy="256" r="240" fill="url(#texture)" opacity="0.4"/>

  <!-- Stylized 'N' symbol with curves -->
  <g filter="url(#glow)">
    <!-- Left segment with curve -->
    <path 
      d="M170 160C170 160 170 352 170 352
         C170 352 190 332 190 312"
      stroke="url(#nGradient)" 
      stroke-width="36" 
      stroke-linecap="round"
      stroke-linejoin="round"
    />
    
    <!-- Diagonal segment with double curve -->
    <path 
      d="M170 160C170 160 256 256 342 352
         C342 352 332 332 322 312"
      stroke="url(#nGradient)" 
      stroke-width="36" 
      stroke-linecap="round"
      stroke-linejoin="round"
    />
    
    <!-- Right segment with curve -->
    <path 
      d="M342 352C342 352 342 160 342 160
         C342 160 322 180 322 200"
      stroke="url(#nGradient)" 
      stroke-width="36" 
      stroke-linecap="round"
      stroke-linejoin="round"
    />

    <!-- Modern decorative strokes -->
    <path
      d="M170 160L190 140M170 256L190 236M170 352L190 332"
      stroke="url(#nGradient)"
      stroke-width="8"
      stroke-linecap="round"
      opacity="0.7"
    />
    <path
      d="M342 160L322 140M342 256L322 236M342 352L322 332"
      stroke="url(#nGradient)"
      stroke-width="8"
      stroke-linecap="round"
      opacity="0.7"
    />
    
    <!-- Additional modern accents -->
    <path
      d="M256 200L276 180M256 312L236 332"
      stroke="url(#nGradient)"
      stroke-width="8"
      stroke-linecap="round"
      opacity="0.7"
    >
      <animate attributeName="opacity" values="0.7;0.4;0.7" dur="2s" repeatCount="indefinite"/>
    </path>

    <!-- New modern line accents -->
    <path
      d="M200 180L220 160M290 332L310 312"
      stroke="url(#nGradient)"
      stroke-width="4"
      stroke-linecap="round"
      opacity="0.5"
    >
      <animate attributeName="opacity" values="0.5;0.2;0.5" dur="3s" repeatCount="indefinite"/>
    </path>

    <!-- Parallel accent lines -->
    <path
      d="M190 200L210 220M300 280L320 300"
      stroke="url(#nGradient)"
      stroke-width="3"
      stroke-linecap="round"
      opacity="0.6"
    />

    <!-- Dynamic corner accents -->
    <path
      d="M160 170C160 170 180 150 180 150"
      stroke="url(#nGradient)"
      stroke-width="4"
      stroke-linecap="round"
      opacity="0.8"
    />
    <path
      d="M332 342C332 342 352 362 352 362"
      stroke="url(#nGradient)"
      stroke-width="4"
      stroke-linecap="round"
      opacity="0.8"
    />
  </g>

  <!-- Enhanced decorative elements -->
  <circle 
    cx="256" 
    cy="256" 
    r="200" 
    stroke="url(#shine)" 
    stroke-width="3" 
    stroke-dasharray="6 14" 
    opacity="0.5"
  />
  
  <!-- Modern geometric accents with curves -->
  <path 
    d="M120 120Q135 135 150 150" 
    stroke="url(#nGradient)" 
    stroke-width="4" 
    opacity="0.7"
  />
  <path 
    d="M392 392Q377 377 362 362" 
    stroke="url(#nGradient)" 
    stroke-width="4" 
    opacity="0.7"
  />
  
  <!-- Enhanced corner accents -->
  <circle cx="170" cy="160" r="10" fill="url(#nGradient)" opacity="0.9">
    <animate attributeName="opacity" values="0.9;0.6;0.9" dur="3s" repeatCount="indefinite"/>
  </circle>
  <circle cx="342" cy="352" r="10" fill="url(#nGradient)" opacity="0.9">
    <animate attributeName="opacity" values="0.9;0.6;0.9" dur="3s" repeatCount="indefinite"/>
  </circle>
</svg> 