<?xml version="1.0" encoding="UTF-8"?>
<svg width="512" height="512" viewBox="0 0 512 512" fill="none" xmlns="http://www.w3.org/2000/svg">
  <defs>
    <!-- Background gradient -->
    <linearGradient id="bgGradient" x1="0%" y1="0%" x2="100%" y2="100%">
      <stop offset="0%" style="stop-color:#000000"/>
      <stop offset="100%" style="stop-color:#0f0f0f"/>
    </linearGradient>
    
    <!-- Purple gradient for N -->
    <linearGradient id="nGradient" x1="0%" y1="0%" x2="100%" y2="100%">
      <stop offset="0%" style="stop-color:#9333ea"/>
      <stop offset="100%" style="stop-color:#c084fc"/>
    </linearGradient>
    
    <!-- Glow effect -->
    <filter id="glow" x="-20%" y="-20%" width="140%" height="140%">
      <feGaussianBlur stdDeviation="8" result="blur"/>
      <feComposite in="SourceGraphic" in2="blur" operator="over"/>
    </filter>
  </defs>

  <!-- Dark background -->
  <rect width="512" height="512" rx="80" fill="url(#bgGradient)"/>
  
  <!-- Letter N with stroke lines -->
  <g filter="url(#glow)">
    <!-- Main N shape -->
    <path 
      d="M155 140V372M155 140L357 372M357 140V372" 
      stroke="url(#nGradient)" 
      stroke-width="40" 
      stroke-linecap="round"
      stroke-linejoin="round"
    />
    
    <!-- Inner line strokes -->
    <path 
      d="M155 140V372M155 140L357 372M357 140V372" 
      stroke="white" 
      stroke-width="12" 
      stroke-linecap="round"
      stroke-linejoin="round"
      opacity="0.3"
    />
    
    <!-- Decorative line strokes -->
    <path 
      d="M155 140V372M155 140L357 372M357 140V372" 
      stroke="#c084fc" 
      stroke-width="4" 
      stroke-linecap="round"
      stroke-linejoin="round"
      opacity="0.8"
      stroke-dasharray="1 8"
    />
  </g>

  <!-- Corner accents -->
  <path d="M100 100L130 130" stroke="#a855f7" stroke-width="3" stroke-linecap="round"/>
  <path d="M412 100L382 130" stroke="#a855f7" stroke-width="3" stroke-linecap="round"/>
  <path d="M100 412L130 382" stroke="#a855f7" stroke-width="3" stroke-linecap="round"/>
  <path d="M412 412L382 382" stroke="#a855f7" stroke-width="3" stroke-linecap="round"/>
</svg> 