<svg xmlns="http://www.w3.org/2000/svg" viewBox="0 0 80 24" fill="none">
  <path d="M23.8299 12.16C23.8299 9.66 21.7599 7.73 19.2599 7.73C16.7599 7.73 14.6899 9.66 14.6899 12.16C14.6899 14.66 16.7599 16.59 19.2599 16.59C21.7599 16.59 23.8299 14.66 23.8299 12.16Z" fill="#1DBF73"/>
  <path d="M63.25 9.18H61.9V7.05H59.83V9.18H58.82V10.78H59.83V14.04C59.83 15.4 60.66 16.18 62.21 16.18C62.78 16.18 63.33 16.03 63.67 15.85L63.27 14.28C63.07 14.38 62.82 14.46 62.55 14.46C62.05 14.46 61.9 14.13 61.9 13.72V10.78H63.25V9.18Z" fill="white"/>
  <path d="M53.54 9.02C52.97 9.02 52.45 9.24 52.09 9.8H52.05V9.18H50V16.03H52.09V12.38C52.09 11.51 52.5 10.94 53.22 10.94C53.9 10.94 54.2 11.51 54.2 12.36V16.03H56.29V11.94C56.29 10.23 55.23 9.02 53.54 9.02Z" fill="white"/>
  <path d="M47.27 9.18H45.18V16.03H47.27V9.18Z" fill="white"/>
  <path d="M46.22 5.7C45.49 5.7 44.9 6.27 44.9 6.99C44.9 7.7 45.49 8.28 46.22 8.28C46.95 8.28 47.54 7.7 47.54 6.99C47.54 6.27 46.95 5.7 46.22 5.7Z" fill="white"/>
  <path d="M42.91 13.08C42.91 14.2 42.1 14.85 41.16 14.85C40.35 14.85 39.83 14.33 39.83 13.57C39.83 12.77 40.37 12.31 41.44 12.31H42.91V13.08ZM45 9.19H43.02V10.14H42.98C42.62 9.46 41.83 9.03 40.78 9.03C38.95 9.03 37.58 10.33 37.58 12.44C37.58 14.5 38.82 15.76 40.83 15.76C41.76 15.76 42.54 15.44 42.99 14.88H43.03V15.28C43.03 16.56 42.22 17.23 41.06 17.23C40.06 17.23 39.46 16.78 39.22 16.11L37.26 16.54C37.63 17.85 38.95 18.8 41.06 18.8C43.32 18.8 45 17.71 45 15.11V9.19Z" fill="white"/>
  <path d="M28.1 9.02C27.33 9.02 26.64 9.34 26.23 9.98H26.19V9.18H24.14V19.46H26.23V15.3H26.28C26.67 15.89 27.34 16.18 28.1 16.18C29.92 16.18 31.38 14.62 31.38 12.6C31.38 10.58 29.92 9.02 28.1 9.02ZM27.62 14.44C26.6 14.44 26.13 13.6 26.13 12.6C26.13 11.6 26.6 10.76 27.62 10.76C28.64 10.76 29.11 11.6 29.11 12.6C29.11 13.6 28.64 14.44 27.62 14.44Z" fill="white"/>
  <path d="M36.24 9.18H34.15V16.03H36.24V9.18Z" fill="white"/>
  <path d="M35.19 5.7C34.46 5.7 33.87 6.27 33.87 6.99C33.87 7.7 34.46 8.28 35.19 8.28C35.92 8.28 36.51 7.7 36.51 6.99C36.51 6.27 35.92 5.7 35.19 5.7Z" fill="white"/>
</svg> 