<svg xmlns="http://www.w3.org/2000/svg" viewBox="0 0 24 24" fill="none">
  <path d="M21.5821 5.54289C21.1398 4.91221 20.3924 4.67932 19.2828 4.6V4.6C18.918 4.58473 18.5313 4.57999 18.1228 4.57999H9.10423C8.86235 4.5778 8.62553 4.65536 8.43271 4.79926C8.23988 4.94317 8.10053 5.14544 8.03599 5.37599C7.99307 5.52621 7.98165 5.6846 8.00248 5.84055C8.02332 5.9965 8.07594 6.14683 8.15719 6.28235C8.23844 6.41786 8.34671 6.53624 8.47537 6.62999C8.60403 6.72375 8.75043 6.79105 8.90608 6.82756L10.8287 7.31332L13.024 7.88468V12.6504C13.0229 12.9358 12.9227 13.211 12.7427 13.428C12.5626 13.645 12.3153 13.7886 12.0423 13.8309C11.9193 13.8465 11.7942 13.8393 11.6738 13.8095C11.5535 13.7797 11.4402 13.7281 11.3401 13.6571C11.24 13.5861 11.1551 13.4973 11.0897 13.3951C11.0242 13.293 10.9795 13.1794 10.9581 13.0599L10.3974 10.3153L5.60275 8.89285C5.36977 8.82808 5.15541 8.70962 4.97711 8.54774C4.79881 8.38585 4.66146 8.18484 4.57602 7.96083L4.57474 7.95645C4.52066 7.80546 4.49776 7.64556 4.5072 7.48612C4.51663 7.32668 4.55821 7.17029 4.6301 7.02595C4.70199 6.88161 4.80267 6.75232 4.9264 6.64593C5.05014 6.53954 5.19438 6.4582 5.35098 6.4072L5.8577 6.22818L6.76262 5.9146L7.51118 5.65246L8.20171 5.41066L9.55395 5.01055L10.8227 4.63291C11.0114 4.5752 11.2109 4.54983 11.4116 4.55796H18.1222C18.5249 4.55796 18.9067 4.56277 19.2651 4.57999C20.1857 4.64112 20.779 4.81794 21.1088 5.25013C21.4385 5.68233 21.4385 6.27989 21.1388 7.14408C21.0792 7.29642 21.0094 7.44428 20.9304 7.58641L18.2848 12.1795C18.2296 12.2731 18.1955 12.3784 18.1848 12.4876C18.1741 12.5968 18.1871 12.7075 18.2229 12.8107C18.2586 12.9138 18.3162 13.0069 18.3913 13.0831C18.4664 13.1594 18.5573 13.2166 18.6567 13.2504C18.7562 13.2841 18.8618 13.2934 18.9654 13.2776C19.069 13.2617 19.1679 13.2212 19.2548 13.1589C19.3417 13.0966 19.4143 13.0142 19.467 12.9174C19.5196 12.8207 19.5509 12.7122 19.5587 12.6008V12.6008C19.5688 12.5515 19.5812 12.5022 19.5961 12.4534L22.2417 7.86023C22.4799 7.42353 22.665 7.01212 22.7862 6.62581C22.9793 5.99526 22.9793 5.32467 22.5876 4.77332C22.4106 4.53345 22.1764 4.34244 21.9064 4.21805C21.8481 4.18903 21.7875 4.16354 21.7251 4.14173" fill="#7C3AED"/>
  <path d="M4.40664 18.458C4.84885 19.0887 5.59632 19.3216 6.70594 19.401V19.401C7.07076 19.4163 7.45743 19.421 7.86599 19.421H16.8845C17.1264 19.4232 17.3632 19.3456 17.5561 19.2017C17.7489 19.0578 17.8882 18.8555 17.9528 18.625C17.9957 18.4748 18.0071 18.3164 17.9863 18.1604C17.9654 18.0045 17.9128 17.8541 17.8316 17.7186C17.7503 17.5831 17.642 17.4647 17.5134 17.371C17.3847 17.2772 17.2383 17.2099 17.0827 17.1734L15.1601 16.6876L12.9648 16.1163V11.3506C12.9659 11.0652 13.0661 10.79 13.2461 10.573C13.4262 10.356 13.6735 10.2124 13.9465 10.1701C14.0694 10.1545 14.1946 10.1617 14.315 10.1915C14.4353 10.2213 14.5486 10.2729 14.6487 10.3439C14.7488 10.4149 14.8337 10.5037 14.8991 10.6059C14.9646 10.708 15.0093 10.8216 15.0307 10.9411L15.5914 13.6857L20.386 15.1082C20.619 15.1729 20.8334 15.2914 21.0117 15.4533C21.19 15.6151 21.3273 15.8162 21.4128 16.0402L21.414 16.0445C21.4681 16.1955 21.491 16.3554 21.4816 16.5149C21.4721 16.6743 21.4306 16.8307 21.3587 16.975C21.2868 17.1194 21.1861 17.2487 21.0624 17.355C20.9386 17.4614 20.7944 17.5427 20.6378 17.5938L20.1311 17.7728L19.2262 18.0864L18.4776 18.3485L17.7871 18.5903L16.4348 18.9904L15.1661 19.3681C14.9774 19.4258 14.7779 19.4512 14.5771 19.443H7.86655C7.46384 19.443 7.08205 19.4382 6.72357 19.421C5.80295 19.3599 5.20967 19.1831 4.87994 18.7509C4.55021 18.3187 4.55021 17.7211 4.8499 16.8569C4.90955 16.7046 4.9794 16.5567 5.05834 16.4146L7.70398 11.8214C7.75919 11.7278 7.79325 11.6226 7.80395 11.5134C7.81465 11.4042 7.80165 11.2935 7.76591 11.1903C7.73016 11.0872 7.67257 10.9941 7.59747 10.9178C7.52236 10.8416 7.43149 10.7844 7.33208 10.7506C7.23266 10.7169 7.12704 10.7076 7.02346 10.7234C6.91987 10.7393 6.82093 10.7798 6.73402 10.8421C6.64711 10.9044 6.57451 10.9868 6.52185 11.0836C6.46919 11.1803 6.43788 11.2888 6.43008 11.4002V11.4002C6.42 11.4495 6.40757 11.4987 6.39271 11.5476L3.74707 16.1407C3.50885 16.5774 3.32375 16.9888 3.20258 17.3751C3.00949 18.0057 3.00949 18.6763 3.40123 19.2277C3.5782 19.4675 3.81238 19.6585 4.08242 19.7829C4.14069 19.8119 4.20132 19.8374 4.26369 19.8593" fill="#7C3AED"/>
</svg> 