<svg xmlns="http://www.w3.org/2000/svg" viewBox="0 0 24 24" fill="none">
  <path d="M18.5612 13.5557C18.5612 13.5557 16.6731 19.375 10.8087 19.375C7.08087 19.375 4.05867 16.3528 4.05867 12.625C4.05867 8.89717 7.08087 5.875 10.8087 5.875C14.5366 5.875 17.5588 8.89717 17.5588 12.625M17.5588 12.625V4.625" stroke="#3B82F6" stroke-width="1.5" stroke-linecap="round" stroke-linejoin="round"/>
  <path fill-rule="evenodd" clip-rule="evenodd" d="M14.5987 13.7057C14.9446 13.1637 15.3762 12.5435 15.8935 11.8452C16.4108 11.1469 16.9281 10.5267 17.4454 9.98467H19.0311C18.2387 11.0688 17.4454 12.1112 16.6522 13.1119C15.8589 14.1126 15.0448 15.0708 14.21 15.9863V19.2559H12.1518V12.3916C12.1518 11.6933 12.0238 11.1055 11.7678 10.628C11.5118 10.1505 11.1838 9.9118 10.7836 9.9118C10.3834 9.9118 10.0454 10.1505 9.76943 10.628C9.49347 11.1055 9.35549 11.6933 9.35549 12.3916V19.2559H7.29727V12.3916C7.29727 11.6933 7.16929 11.1055 6.91334 10.628C6.65738 10.1505 6.32937 9.9118 5.92918 9.9118C5.529 9.9118 5.19099 10.1505 4.91504 10.628C4.63909 11.1055 4.50111 11.6933 4.50111 12.3916V19.2559H2.44289V12.3916C2.44289 11.018 2.733 9.9754 3.31322 9.26387C3.89344 8.55234 4.68162 8.19658 5.67777 8.19658C6.10546 8.19658 6.50565 8.29865 6.87832 8.50279C7.25099 8.70693 7.56316 9.00841 7.81482 9.40723C8.07513 9.00841 8.39165 8.70693 8.76432 8.50279C9.13698 8.29865 9.53717 8.19658 9.96487 8.19658C10.961 8.19658 11.7492 8.55234 12.3294 9.26387C12.9096 9.9754 13.1997 11.018 13.1997 12.3916V12.7061C13.5773 12.8082 13.9402 13.0468 14.2883 13.4456C14.3882 13.5477 14.4931 13.6232 14.5987 13.7057Z" fill="#0D9968"/>
</svg> 